<?xml version="1.0" encoding="UTF-8" standalone="no"?>
<!DOCTYPE svg PUBLIC "-//W3C//DTD SVG 1.1//EN" "http://www.w3.org/Graphics/SVG/1.1/DTD/svg11.dtd">
<svg width="100%" height="100%" viewBox="0 0 4016 1938" version="1.1" xmlns="http://www.w3.org/2000/svg" xmlns:xlink="http://www.w3.org/1999/xlink" xml:space="preserve" xmlns:serif="http://www.serif.com/" style="fill-rule:evenodd;clip-rule:evenodd;stroke-linecap:round;stroke-linejoin:round;stroke-miterlimit:1.5;">
    <g transform="matrix(1,0,0,1,-8448,0)">
        <g id="Artboard3" transform="matrix(1,0,0,1,-0.0813648,0)">
            <rect x="8448.08" y="0" width="4015.75" height="1937.01" style="fill:none;"/>
            <g transform="matrix(1,-8.04684e-17,-8.04684e-17,1.05852,8086.29,-1259.52)">
                <g transform="matrix(1,7.60198e-17,7.60198e-17,0.944716,361.795,1189.89)">
                    <path d="M483.726,548.782L464.976,586.282L446.226,548.782L483.726,548.782Z"/>
                    <path d="M464.976,236.22L464.976,556.282" style="fill:none;stroke:black;stroke-width:12.5px;"/>
                </g>
            </g>
            <g transform="matrix(-4.30659e-15,-1,1.71429,-1.04317e-15,6608.79,1535.43)">
                <g transform="matrix(-6.08514e-16,0.583333,-1,-2.51218e-15,1535.43,1072.92)">
                    <path d="M1112.52,689.911L1150.02,708.661L1112.52,727.411L1112.52,689.911Z"/>
                    <path d="M583.087,708.661L1120.02,708.661" style="fill:none;stroke:black;stroke-width:12.5px;"/>
                </g>
            </g>
            <g transform="matrix(-4.48604e-15,-1,1.78571,-1.04317e-15,7311.01,1535.43)">
                <g transform="matrix(-5.84174e-16,0.56,-1,-2.51218e-15,1535.43,636.761)">
                    <path d="M1939.29,689.911L1976.79,708.661L1939.29,727.411L1939.29,689.911Z"/>
                    <path d="M1386.24,708.661L1946.79,708.661" style="fill:none;stroke:black;stroke-width:12.5px;"/>
                </g>
            </g>
            <g transform="matrix(-4.48604e-15,-1,1.78571,-1.04317e-15,7311.01,2007.87)">
                <g transform="matrix(-5.84174e-16,0.56,-1,-2.51218e-15,2007.87,636.761)">
                    <path d="M1939.29,1162.35L1976.79,1181.1L1939.29,1199.85L1939.29,1162.35Z"/>
                    <path d="M1386.24,1181.1L1946.79,1181.1" style="fill:none;stroke:black;stroke-width:12.5px;"/>
                </g>
            </g>
            <g transform="matrix(-4.48604e-15,-1,1.78571,-1.04317e-15,7311.01,2503.94)">
                <g transform="matrix(-5.84174e-16,0.56,-1,-2.51218e-15,2503.94,636.761)">
                    <path d="M1939.29,1658.41L1976.79,1677.16L1939.29,1695.91L1939.29,1658.41Z"/>
                    <path d="M1386.24,1677.16L1946.79,1677.16" style="fill:none;stroke:black;stroke-width:12.5px;"/>
                </g>
            </g>
            <g transform="matrix(-4.48604e-15,-1,1.78571,-1.04317e-15,7311.01,1062.99)">
                <g transform="matrix(-5.84174e-16,0.56,-1,-2.51218e-15,1062.99,636.761)">
                    <path d="M1939.29,217.47L1976.79,236.22L1939.29,254.97L1939.29,217.47Z"/>
                    <path d="M1386.24,236.22L1946.79,236.22" style="fill:none;stroke:black;stroke-width:12.5px;"/>
                </g>
            </g>
            <g transform="matrix(-1.88413e-15,-0.42,0.75,-4.3813e-16,9620.57,583.465)">
                <g transform="matrix(-1.39089e-15,1.33333,-2.38095,-5.98138e-15,1389.2,-1563.32)">
                    <path d="M2442.82,217.47L2480.32,236.22L2442.82,254.97L2442.82,217.47Z"/>
                    <path d="M2232.28,236.22L2450.32,236.22" style="fill:none;stroke:black;stroke-width:12.5px;"/>
                </g>
            </g>
            <g transform="matrix(-1.88413e-15,-0.42,0.75,-4.3813e-16,9620.57,1055.91)">
                <g transform="matrix(-1.39089e-15,1.33333,-2.38095,-5.98138e-15,2514.06,-1563.32)">
                    <path d="M2442.82,689.911L2480.32,708.661L2442.82,727.411L2442.82,689.911Z"/>
                    <path d="M2232.28,708.661L2450.32,708.661" style="fill:none;stroke:black;stroke-width:12.5px;"/>
                </g>
            </g>
            <g transform="matrix(-1.88413e-15,-0.42,0.75,-4.3813e-16,9620.57,1528.35)">
                <g transform="matrix(-1.39089e-15,1.33333,-2.38095,-5.98138e-15,3638.92,-1563.32)">
                    <path d="M2442.82,1162.35L2480.32,1181.1L2442.82,1199.85L2442.82,1162.35Z"/>
                    <path d="M2232.28,1181.1L2450.32,1181.1" style="fill:none;stroke:black;stroke-width:12.5px;"/>
                </g>
            </g>
            <g transform="matrix(-1.88413e-15,-0.42,0.75,-4.3813e-16,9620.57,2024.41)">
                <g transform="matrix(-1.39089e-15,1.33333,-2.38095,-5.98138e-15,4820.02,-1563.32)">
                    <path d="M2442.82,1658.41L2480.32,1677.16L2442.82,1695.91L2442.82,1658.41Z"/>
                    <path d="M2232.28,1677.16L2450.32,1677.16" style="fill:none;stroke:black;stroke-width:12.5px;"/>
                </g>
            </g>
            <g transform="matrix(-5.47296e-15,-1.22,2.17857,-1.27266e-15,8351.93,1244.88)">
                <g transform="matrix(-4.78831e-16,0.459016,-0.819672,-2.05916e-15,1020.39,44.1367)">
                    <path d="M3665.26,217.47L3702.76,236.22L3665.26,254.97L3665.26,217.47Z"/>
                    <path d="M2982.28,236.22L3672.76,236.22" style="fill:none;stroke:black;stroke-width:12.5px;"/>
                </g>
            </g>
            <g transform="matrix(-1.14843e-14,-1,4.57143,-1.04317e-15,1626.61,1062.99)">
                <g transform="matrix(-2.28193e-16,0.21875,-1,-2.51218e-15,1062.99,1492.2)">
                    <path d="M1112.44,217.625L1150.02,236.22L1112.59,255.124L1112.44,217.625Z"/>
                    <path d="M110.646,240.49C110.646,240.49 949.568,237.044 1120.02,236.344" style="fill:none;stroke:black;stroke-width:12.5px;"/>
                </g>
            </g>
            <g transform="matrix(-4.30659e-15,-1,1.71429,-1.04317e-15,6608.79,2007.87)">
                <g transform="matrix(-6.08514e-16,0.583333,-1,-2.51218e-15,2007.87,1072.92)">
                    <path d="M1112.52,1162.35L1150.02,1181.1L1112.52,1199.85L1112.52,1162.35Z"/>
                    <path d="M583.087,1181.1L1120.02,1181.1" style="fill:none;stroke:black;stroke-width:12.5px;"/>
                </g>
            </g>
            <g transform="matrix(-4.30659e-15,-1,1.71429,-1.04317e-15,6608.79,2489.99)">
                <g transform="matrix(-6.08514e-16,0.583333,-1,-2.51218e-15,2489.99,1072.92)">
                    <path d="M1112.52,1644.47L1150.02,1663.22L1112.52,1681.97L1112.52,1644.47Z"/>
                    <path d="M583.087,1663.22L1120.02,1663.22" style="fill:none;stroke:black;stroke-width:12.5px;"/>
                </g>
            </g>
            <g transform="matrix(1,1.96438e-16,1.96438e-16,0.714286,8086.29,-182.552)">
                <g transform="matrix(1,-2.75014e-16,-2.75014e-16,1.4,361.795,255.573)">
                    <path d="M483.726,1025.49L464.976,1062.99L446.226,1025.49L483.726,1025.49Z"/>
                    <path d="M464.976,826.772L464.976,1032.99" style="fill:none;stroke:black;stroke-width:12.5px;"/>
                </g>
            </g>
            <g transform="matrix(1,1.96438e-16,1.96438e-16,0.714286,8086.29,289.889)">
                <g transform="matrix(1,-2.75014e-16,-2.75014e-16,1.4,361.795,-405.844)">
                    <path d="M483.726,1497.93L464.976,1535.43L446.226,1497.93L483.726,1497.93Z"/>
                    <path d="M464.976,1299.21L464.976,1505.43" style="fill:none;stroke:black;stroke-width:12.5px;"/>
                </g>
            </g>
            <g transform="matrix(1,0,0,1,8889.44,-590.551)">
                <rect x="708.661" y="708.661" width="236.22" height="236.22" style="fill:white;stroke:black;stroke-width:12.5px;"/>
            </g>
            <g transform="matrix(0.75,0,0,1,9090.22,-566.929)">
                <path d="M755.906,755.906L755.906,850.394L708.661,803.15L755.906,850.394L803.15,803.15" style="fill:none;stroke:black;stroke-width:14.14px;"/>
            </g>
            <g transform="matrix(1,0,0,1,9439.66,-562.482)">
                <g transform="matrix(150,0,0,150,368.172,852.389)">
                </g>
                <text x="284.749px" y="852.389px" style="font-family:'ArialMT', 'Arial', sans-serif;font-size:150px;">4</text>
            </g>
            <g transform="matrix(1,0,0,1,8889.44,-118.11)">
                <rect x="708.661" y="708.661" width="236.22" height="236.22" style="fill:white;stroke:black;stroke-width:12.5px;"/>
            </g>
            <g transform="matrix(0.75,0,0,1,9090.22,-94.4882)">
                <path d="M755.906,755.906L755.906,850.394L708.661,803.15L755.906,850.394L803.15,803.15" style="fill:none;stroke:black;stroke-width:14.14px;"/>
            </g>
            <g transform="matrix(1,0,0,1,9439.66,-90.0411)">
                <g transform="matrix(150,0,0,150,368.172,852.389)">
                </g>
                <text x="284.749px" y="852.389px" style="font-family:'ArialMT', 'Arial', sans-serif;font-size:150px;">4</text>
            </g>
            <g transform="matrix(1,0,0,1,8283.72,-674.15)">
                <g transform="matrix(150,0,0,150,359.749,852.389)">
                </g>
                <text x="284.749px" y="852.389px" style="font-family:'ArialMT', 'Arial', sans-serif;font-size:150px;">x</text>
            </g>
            <g transform="matrix(1,0,0,1,9761.07,-673.71)">
                <g transform="matrix(150,0,0,150,443.172,852.389)">
                </g>
                <text x="284.749px" y="852.389px" style="font-family:'ArialMT', 'Arial', sans-serif;font-size:150px;">x0</text>
            </g>
            <g transform="matrix(1,0,0,1,11504.8,-673.71)">
                <g transform="matrix(150,0,0,150,443.172,852.389)">
                </g>
                <text x="284.749px" y="852.389px" style="font-family:'ArialMT', 'Arial', sans-serif;font-size:150px;">y0</text>
            </g>
            <g transform="matrix(1,0,0,1,11504.8,-673.71)">
                <g transform="matrix(150,0,0,150,443.172,852.389)">
                </g>
                <text x="284.749px" y="852.389px" style="font-family:'ArialMT', 'Arial', sans-serif;font-size:150px;">y0</text>
            </g>
            <g transform="matrix(-5.47296e-15,-1.22,2.17857,-1.27266e-15,8351.93,1717.32)">
                <g transform="matrix(-4.78831e-16,0.459016,-0.819672,-2.05916e-15,1407.64,44.1367)">
                    <path d="M3665.26,689.911L3702.76,708.661L3665.26,727.411L3665.26,689.911Z"/>
                    <path d="M2982.28,708.661L3672.76,708.661" style="fill:none;stroke:black;stroke-width:12.5px;"/>
                </g>
            </g>
            <g transform="matrix(1,0,0,1,11504.8,-201.269)">
                <g transform="matrix(150,0,0,150,443.172,852.389)">
                </g>
                <text x="284.749px" y="852.389px" style="font-family:'ArialMT', 'Arial', sans-serif;font-size:150px;">y1</text>
            </g>
            <g transform="matrix(-5.47296e-15,-1.22,2.17857,-1.27266e-15,8351.93,2189.76)">
                <g transform="matrix(-4.78831e-16,0.459016,-0.819672,-2.05916e-15,1794.89,44.1367)">
                    <path d="M3665.26,1162.35L3702.76,1181.1L3665.26,1199.85L3665.26,1162.35Z"/>
                    <path d="M2982.28,1181.1L3672.76,1181.1" style="fill:none;stroke:black;stroke-width:12.5px;"/>
                </g>
            </g>
            <g transform="matrix(1,0,0,1,11504.8,271.172)">
                <g transform="matrix(150,0,0,150,443.172,852.389)">
                </g>
                <text x="284.749px" y="852.389px" style="font-family:'ArialMT', 'Arial', sans-serif;font-size:150px;">y2</text>
            </g>
            <g transform="matrix(-5.47296e-15,-1.22,2.17857,-1.27266e-15,8357.83,2687.96)">
                <g transform="matrix(-4.78831e-16,0.459016,-0.819672,-2.05916e-15,2203.25,41.426)">
                    <path d="M3671.16,1660.55L3708.66,1679.3L3671.16,1698.05L3671.16,1660.55Z"/>
                    <path d="M2988.19,1679.3L3678.66,1679.3" style="fill:none;stroke:black;stroke-width:12.5px;"/>
                </g>
            </g>
            <g transform="matrix(1,0,0,1,11499.7,777.532)">
                <g transform="matrix(150,0,0,150,443.172,852.389)">
                </g>
                <text x="284.749px" y="852.389px" style="font-family:'ArialMT', 'Arial', sans-serif;font-size:150px;">y3</text>
            </g>
            <g transform="matrix(1,0,0,1,9773.02,-207.932)">
                <g transform="matrix(150,0,0,150,443.172,852.389)">
                </g>
                <text x="284.749px" y="852.389px" style="font-family:'ArialMT', 'Arial', sans-serif;font-size:150px;">x1</text>
            </g>
            <g transform="matrix(1,0,0,1,9784.69,257.847)">
                <g transform="matrix(150,0,0,150,443.172,852.389)">
                </g>
                <text x="284.749px" y="852.389px" style="font-family:'ArialMT', 'Arial', sans-serif;font-size:150px;">x2</text>
            </g>
            <g transform="matrix(1,0,0,1,9773.02,767.234)">
                <g transform="matrix(150,0,0,150,443.172,852.389)">
                </g>
                <text x="284.749px" y="852.389px" style="font-family:'ArialMT', 'Arial', sans-serif;font-size:150px;">x3</text>
            </g>
            <g transform="matrix(1,0,0,1,8889.44,-590.551)">
                <rect x="708.661" y="708.661" width="236.22" height="236.22" style="fill:white;stroke:black;stroke-width:12.5px;"/>
            </g>
            <g transform="matrix(1,0,0,1,8086.29,-118.11)">
                <rect x="708.661" y="708.661" width="236.22" height="236.22" style="fill:white;stroke:black;stroke-width:12.5px;"/>
            </g>
            <g transform="matrix(1,0,0,1,9716.21,-590.551)">
                <rect x="708.661" y="708.661" width="236.22" height="236.22" style="fill:white;stroke:black;stroke-width:12.5px;"/>
            </g>
            <g transform="matrix(1,0,0,1,9716.21,-590.551)">
                <rect x="708.661" y="708.661" width="236.22" height="236.22" style="fill:white;stroke:black;stroke-width:12.5px;"/>
            </g>
            <g transform="matrix(2.1,0,0,7.1,9440.21,-4913.39)">
                <rect x="708.661" y="708.661" width="236.22" height="236.22" style="fill:white;stroke:black;stroke-width:2.39px;"/>
            </g>
            <g transform="matrix(1,0,0,1,10177.5,-568.924)">
                <g transform="matrix(150,0,0,150,451.595,852.389)">
                </g>
                <text x="284.749px" y="852.389px" style="font-family:'ArialMT', 'Arial', sans-serif;font-size:150px;">h0</text>
            </g>
            <g transform="matrix(1,0,0,1,9716.21,-122.379)">
                <rect x="708.661" y="708.661" width="236.22" height="236.22" style="fill:white;stroke:black;stroke-width:12.5px;"/>
            </g>
            <g transform="matrix(1,0,0,1,10177.5,-95.006)">
                <g transform="matrix(150,0,0,150,451.595,852.389)">
                </g>
                <text x="284.749px" y="852.389px" style="font-family:'ArialMT', 'Arial', sans-serif;font-size:150px;">h3</text>
            </g>
            <g transform="matrix(1,0,0,1,10773.8,157.99)">
                <g transform="matrix(150,0,0,150,576.326,852.389)">
                </g>
                <text x="284.749px" y="852.389px" style="font-family:'ArialMT', 'Arial', sans-serif;font-size:150px;">DFT</text>
            </g>
            <g transform="matrix(1,0,0,1,9716.21,355.325)">
                <rect x="708.661" y="708.661" width="236.22" height="236.22" style="fill:white;stroke:black;stroke-width:12.5px;"/>
            </g>
            <g transform="matrix(1,0,0,1,10177.8,381.704)">
                <g transform="matrix(150,0,0,150,451.595,852.389)">
                </g>
                <text x="284.749px" y="852.389px" style="font-family:'ArialMT', 'Arial', sans-serif;font-size:150px;">h2</text>
            </g>
            <g transform="matrix(1,0,0,1,9716.21,840.915)">
                <rect x="708.661" y="708.661" width="236.22" height="236.22" style="fill:white;stroke:black;stroke-width:12.5px;"/>
            </g>
            <g transform="matrix(1,0,0,1,10177.8,872.02)">
                <g transform="matrix(150,0,0,150,451.595,852.389)">
                </g>
                <text x="284.749px" y="852.389px" style="font-family:'ArialMT', 'Arial', sans-serif;font-size:150px;">h1</text>
            </g>
            <g transform="matrix(1,0,0,1,8542.03,-83.5987)">
                <text x="284.749px" y="852.389px" style="font-family:'ArialMT', 'Arial', sans-serif;font-size:150px;">Z</text>
                <g transform="matrix(100,0,0,100,465.291,777.389)">
                </g>
                <text x="376.375px" y="777.389px" style="font-family:'ArialMT', 'Arial', sans-serif;font-size:100px;">-1</text>
            </g>
            <g transform="matrix(1,0,0,1,8082.6,354.331)">
                <rect x="708.661" y="708.661" width="236.22" height="236.22" style="fill:white;stroke:black;stroke-width:12.5px;"/>
            </g>
            <g transform="matrix(1,0,0,1,8538.34,388.842)">
                <text x="284.749px" y="852.389px" style="font-family:'ArialMT', 'Arial', sans-serif;font-size:150px;">Z</text>
                <g transform="matrix(100,0,0,100,465.291,777.389)">
                </g>
                <text x="376.375px" y="777.389px" style="font-family:'ArialMT', 'Arial', sans-serif;font-size:100px;">-1</text>
            </g>
            <g transform="matrix(1,0,0,1,8082.6,826.772)">
                <rect x="708.661" y="708.661" width="236.22" height="236.22" style="fill:white;stroke:black;stroke-width:12.5px;"/>
            </g>
            <g transform="matrix(1,0,0,1,8538.34,861.283)">
                <text x="284.749px" y="852.389px" style="font-family:'ArialMT', 'Arial', sans-serif;font-size:150px;">Z</text>
                <g transform="matrix(100,0,0,100,465.291,777.389)">
                </g>
                <text x="376.375px" y="777.389px" style="font-family:'ArialMT', 'Arial', sans-serif;font-size:100px;">-1</text>
            </g>
            <g transform="matrix(0.75,0,0,1,9090.22,-566.929)">
                <path d="M755.906,755.906L755.906,850.394L708.661,803.15L755.906,850.394L803.15,803.15" style="fill:none;stroke:black;stroke-width:14.14px;"/>
            </g>
            <g transform="matrix(1,0,0,1,9439.66,-562.482)">
                <g transform="matrix(150,0,0,150,368.172,852.389)">
                </g>
                <text x="284.749px" y="852.389px" style="font-family:'ArialMT', 'Arial', sans-serif;font-size:150px;">4</text>
            </g>
            <g transform="matrix(1,0,0,1,8889.44,354.331)">
                <rect x="708.661" y="708.661" width="236.22" height="236.22" style="fill:white;stroke:black;stroke-width:12.5px;"/>
            </g>
            <g transform="matrix(0.75,0,0,1,9090.22,377.953)">
                <path d="M755.906,755.906L755.906,850.394L708.661,803.15L755.906,850.394L803.15,803.15" style="fill:none;stroke:black;stroke-width:14.14px;"/>
            </g>
            <g transform="matrix(1,0,0,1,9439.66,382.4)">
                <g transform="matrix(150,0,0,150,368.172,852.389)">
                </g>
                <text x="284.749px" y="852.389px" style="font-family:'ArialMT', 'Arial', sans-serif;font-size:150px;">4</text>
            </g>
            <g transform="matrix(1,0,0,1,8889.44,826.772)">
                <rect x="708.661" y="708.661" width="236.22" height="236.22" style="fill:white;stroke:black;stroke-width:12.5px;"/>
            </g>
            <g transform="matrix(0.75,0,0,1,9090.22,850.394)">
                <path d="M755.906,755.906L755.906,850.394L708.661,803.15L755.906,850.394L803.15,803.15" style="fill:none;stroke:black;stroke-width:14.14px;"/>
            </g>
            <g transform="matrix(1,0,0,1,9439.66,854.841)">
                <g transform="matrix(150,0,0,150,368.172,852.389)">
                </g>
                <text x="284.749px" y="852.389px" style="font-family:'ArialMT', 'Arial', sans-serif;font-size:150px;">4</text>
            </g>
        </g>
    </g>
</svg>
