<?xml version="1.0" encoding="UTF-8" standalone="no"?>
<!DOCTYPE svg PUBLIC "-//W3C//DTD SVG 1.1//EN" "http://www.w3.org/Graphics/SVG/1.1/DTD/svg11.dtd">
<svg width="100%" height="100%" viewBox="0 0 4016 1938" version="1.1" xmlns="http://www.w3.org/2000/svg" xmlns:xlink="http://www.w3.org/1999/xlink" xml:space="preserve" xmlns:serif="http://www.serif.com/" style="fill-rule:evenodd;clip-rule:evenodd;stroke-linecap:round;stroke-linejoin:round;stroke-miterlimit:1.5;">
    <g id="Artboard1" transform="matrix(1.61905,0,0,0.552189,0,0)">
        <rect x="0" y="0" width="2480.32" height="3507.87" style="fill:none;"/>
        <g transform="matrix(0.617647,-1.45726e-16,-4.97011e-17,1.91695,-204.261,-2238.19)">
            <g transform="matrix(1,7.60198e-17,7.60198e-17,0.944716,330.709,1167.58)">
                <path d="M514.813,572.404L496.063,609.904L477.313,572.404L514.813,572.404Z"/>
                <path d="M496.063,259.843L496.063,579.904" style="fill:none;stroke:black;stroke-width:12.5px;"/>
            </g>
        </g>
        <g transform="matrix(-2.65996e-15,-1.81098,1.05882,-1.88915e-15,-1116.83,2823.41)">
            <g transform="matrix(-6.08514e-16,0.583333,-1,-2.51218e-15,1559.06,1054.79)">
                <path d="M1143.6,713.533L1181.1,732.283L1143.6,751.033L1143.6,713.533Z"/>
                <path d="M614.173,732.283L1151.1,732.283" style="fill:none;stroke:black;stroke-width:12.5px;"/>
            </g>
        </g>
        <g transform="matrix(-2.77079e-15,-1.81098,1.10294,-1.88915e-15,-683.11,2823.41)">
            <g transform="matrix(-5.84174e-16,0.56,-1,-2.51218e-15,1559.06,619.353)">
                <path d="M1970.37,713.533L2007.87,732.283L1970.37,751.033L1970.37,713.533Z"/>
                <path d="M1417.32,732.283L1977.87,732.283" style="fill:none;stroke:black;stroke-width:12.5px;"/>
            </g>
        </g>
        <g transform="matrix(-2.77079e-15,-1.81098,1.10294,-1.88915e-15,-683.11,3678.99)">
            <g transform="matrix(-5.84174e-16,0.56,-1,-2.51218e-15,2031.5,619.353)">
                <path d="M1970.37,1185.97L2007.87,1204.72L1970.37,1223.47L1970.37,1185.97Z"/>
                <path d="M1417.32,1204.72L1977.87,1204.72" style="fill:none;stroke:black;stroke-width:12.5px;"/>
            </g>
        </g>
        <g transform="matrix(-2.77079e-15,-1.81098,1.10294,-1.88915e-15,-683.11,4577.35)">
            <g transform="matrix(-5.84174e-16,0.56,-1,-2.51218e-15,2527.56,619.353)">
                <path d="M1970.37,1682.04L2007.87,1700.79L1970.37,1719.54L1970.37,1682.04Z"/>
                <path d="M1417.32,1700.79L1977.87,1700.79" style="fill:none;stroke:black;stroke-width:12.5px;"/>
            </g>
        </g>
        <g transform="matrix(-2.77079e-15,-1.81098,1.10294,-1.88915e-15,-683.11,1967.83)">
            <g transform="matrix(-5.84174e-16,0.56,-1,-2.51218e-15,1086.61,619.353)">
                <path d="M1970.37,241.093L2007.87,259.843L1970.37,278.593L1970.37,241.093Z"/>
                <path d="M1417.32,259.843L1977.87,259.843" style="fill:none;stroke:black;stroke-width:12.5px;"/>
            </g>
        </g>
        <g transform="matrix(-3.38036e-15,-2.20939,1.34559,-2.30476e-15,-508.035,2297.23)">
            <g transform="matrix(-4.78831e-16,0.459016,-0.819672,-2.05916e-15,1039.76,377.556)">
                <path d="M2938.88,241.093L2976.38,259.843L2938.88,278.593L2938.88,241.093Z"/>
                <path d="M2255.91,259.843L2946.38,259.843" style="fill:none;stroke:black;stroke-width:12.5px;"/>
            </g>
        </g>
        <g transform="matrix(-3.38036e-15,-2.20939,1.34559,-2.30476e-15,79.216,2297.23)">
            <g transform="matrix(-4.78831e-16,0.459016,-0.819672,-2.05916e-15,1039.76,-58.8709)">
                <path d="M3889.66,241.093L3927.16,259.843L3889.66,278.593L3889.66,241.093Z"/>
                <path d="M3206.69,259.843L3897.16,259.843" style="fill:none;stroke:black;stroke-width:12.5px;"/>
            </g>
        </g>
        <g transform="matrix(-3.10328e-15,-2.20939,1.23529,-2.30476e-15,-315.708,2297.23)">
            <g transform="matrix(-5.21584e-16,0.5,-0.819672,-2.05916e-15,1039.76,255.573)">
                <path d="M2934.53,309.702L2976.38,307.087L2953.36,342.131L2934.53,309.702Z"/>
                <path d="M2244.09,732.283C2244.09,732.283 2820.22,397.761 2950.43,322.151" style="fill:none;stroke:black;stroke-width:12.5px;"/>
            </g>
        </g>
        <g transform="matrix(-3.10328e-15,-2.20939,1.23529,-2.30476e-15,-315.708,2297.23)">
            <g transform="matrix(-5.21584e-16,0.5,-0.819672,-2.05916e-15,1039.76,255.573)">
                <path d="M2961.07,369.902L3000,354.331L2989.1,394.815L2961.07,369.902Z"/>
                <path d="M2244.09,1204.72C2244.09,1204.72 2860.56,511.204 2980.07,376.753" style="fill:none;stroke:black;stroke-width:12.5px;"/>
            </g>
        </g>
        <g transform="matrix(-3.10328e-15,-2.20939,1.23529,-2.30476e-15,-315.708,2297.23)">
            <g transform="matrix(-5.21584e-16,0.5,-0.819672,-2.05916e-15,1039.76,255.573)">
                <path d="M3011.72,404.495L3047.24,382.222L3043.75,424.002L3011.72,404.495Z"/>
                <path d="M2244.09,1700.79C2244.09,1700.79 2919.75,591.531 3031.64,407.843" style="fill:none;stroke:black;stroke-width:12.5px;"/>
            </g>
        </g>
        <g transform="matrix(-7.09321e-15,-1.81098,2.82353,-1.88915e-15,-4194.06,1967.83)">
            <g transform="matrix(-2.28193e-16,0.21875,-1,-2.51218e-15,1086.61,1485.4)">
                <path d="M1143.53,241.247L1181.1,259.843L1143.68,278.746L1143.53,241.247Z"/>
                <path d="M141.732,264.112C141.732,264.112 980.654,260.666 1151.1,259.966" style="fill:none;stroke:black;stroke-width:12.5px;"/>
            </g>
        </g>
        <g transform="matrix(-2.65996e-15,-1.81098,1.05882,-1.88915e-15,-1116.83,3678.99)">
            <g transform="matrix(-6.08514e-16,0.583333,-1,-2.51218e-15,2031.5,1054.79)">
                <path d="M1143.6,1185.97L1181.1,1204.72L1143.6,1223.47L1143.6,1185.97Z"/>
                <path d="M614.173,1204.72L1151.1,1204.72" style="fill:none;stroke:black;stroke-width:12.5px;"/>
            </g>
        </g>
        <g transform="matrix(-2.65996e-15,-1.81098,1.05882,-1.88915e-15,-1116.83,4552.1)">
            <g transform="matrix(-6.08514e-16,0.583333,-1,-2.51218e-15,2513.62,1054.79)">
                <path d="M1143.6,1668.09L1181.1,1686.84L1143.6,1705.59L1143.6,1668.09Z"/>
                <path d="M614.173,1686.84L1151.1,1686.84" style="fill:none;stroke:black;stroke-width:12.5px;"/>
            </g>
        </g>
        <g transform="matrix(0.617647,3.55745e-16,1.2133e-16,1.29355,-204.261,-287.819)">
            <g transform="matrix(1,-2.75014e-16,-2.75014e-16,1.4,330.709,222.503)">
                <path d="M514.813,1049.11L496.063,1086.61L477.313,1049.11L514.813,1049.11Z"/>
                <path d="M496.063,850.394L496.063,1056.61" style="fill:none;stroke:black;stroke-width:12.5px;"/>
            </g>
        </g>
        <g transform="matrix(0.617647,3.55745e-16,1.2133e-16,1.29355,-204.261,567.76)">
            <g transform="matrix(1,-2.75014e-16,-2.75014e-16,1.4,330.709,-438.915)">
                <path d="M514.813,1521.56L496.063,1559.06L477.313,1521.56L514.813,1521.56Z"/>
                <path d="M496.063,1322.84L496.063,1529.06" style="fill:none;stroke:black;stroke-width:12.5px;"/>
            </g>
        </g>
        <g transform="matrix(0.617647,0,0,1.81098,291.802,-1026.69)">
            <rect x="708.661" y="708.661" width="236.22" height="236.22" style="fill:white;stroke:black;stroke-width:12.5px;"/>
        </g>
        <g transform="matrix(0.463235,0,0,1.81098,415.818,-983.916)">
            <path d="M755.906,755.906L755.906,850.394L708.661,803.15L755.906,850.394L803.15,803.15" style="fill:none;stroke:black;stroke-width:14.14px;"/>
        </g>
        <g transform="matrix(0.617647,0,0,1.81098,631.649,-975.862)">
            <g transform="matrix(150,0,0,150,368.172,852.389)">
            </g>
            <text x="284.749px" y="852.389px" style="font-family:'ArialMT', 'Arial', sans-serif;font-size:150px;">4</text>
        </g>
        <g transform="matrix(0.617647,0,0,1.81098,291.802,-171.116)">
            <rect x="708.661" y="708.661" width="236.22" height="236.22" style="fill:white;stroke:black;stroke-width:12.5px;"/>
        </g>
        <g transform="matrix(0.463235,0,0,1.81098,415.818,-128.337)">
            <path d="M755.906,755.906L755.906,850.394L708.661,803.15L755.906,850.394L803.15,803.15" style="fill:none;stroke:black;stroke-width:14.14px;"/>
        </g>
        <g transform="matrix(0.617647,0,0,1.81098,631.649,-120.283)">
            <g transform="matrix(150,0,0,150,368.172,852.389)">
            </g>
            <text x="284.749px" y="852.389px" style="font-family:'ArialMT', 'Arial', sans-serif;font-size:150px;">4</text>
        </g>
        <g transform="matrix(0.617647,0,0,1.81098,-82.3155,-1178.09)">
            <g transform="matrix(150,0,0,150,359.749,852.389)">
            </g>
            <text x="284.749px" y="852.389px" style="font-family:'ArialMT', 'Arial', sans-serif;font-size:150px;">x</text>
        </g>
        <g transform="matrix(0.617647,0,0,1.81098,830.163,-1177.29)">
            <g transform="matrix(150,0,0,150,443.172,852.389)">
            </g>
            <text x="284.749px" y="852.389px" style="font-family:'ArialMT', 'Arial', sans-serif;font-size:150px;">x0</text>
        </g>
        <g transform="matrix(0.617647,0,0,1.81098,2026.55,-1177.29)">
            <g transform="matrix(150,0,0,150,443.172,852.389)">
            </g>
            <text x="284.749px" y="852.389px" style="font-family:'ArialMT', 'Arial', sans-serif;font-size:150px;">y0</text>
        </g>
        <g transform="matrix(0.617647,0,0,1.81098,837.542,-333.78)">
            <g transform="matrix(150,0,0,150,443.172,852.389)">
            </g>
            <text x="284.749px" y="852.389px" style="font-family:'ArialMT', 'Arial', sans-serif;font-size:150px;">x1</text>
        </g>
        <g transform="matrix(0.617647,0,0,1.81098,844.753,509.734)">
            <g transform="matrix(150,0,0,150,443.172,852.389)">
            </g>
            <text x="284.749px" y="852.389px" style="font-family:'ArialMT', 'Arial', sans-serif;font-size:150px;">x2</text>
        </g>
        <g transform="matrix(0.617647,0,0,1.81098,837.542,1432.22)">
            <g transform="matrix(150,0,0,150,443.172,852.389)">
            </g>
            <text x="284.749px" y="852.389px" style="font-family:'ArialMT', 'Arial', sans-serif;font-size:150px;">x3</text>
        </g>
        <g transform="matrix(0.617647,0,0,1.81098,291.802,-1026.69)">
            <rect x="708.661" y="708.661" width="236.22" height="236.22" style="fill:white;stroke:black;stroke-width:12.5px;"/>
        </g>
        <g transform="matrix(0.617647,0,0,1.81098,-204.261,-171.116)">
            <rect x="708.661" y="708.661" width="236.22" height="236.22" style="fill:white;stroke:black;stroke-width:12.5px;"/>
        </g>
        <g transform="matrix(0.617647,0,0,1.81098,802.455,-1026.69)">
            <rect x="708.661" y="708.661" width="236.22" height="236.22" style="fill:white;stroke:black;stroke-width:12.5px;"/>
        </g>
        <g transform="matrix(0.617647,0,0,1.81098,802.455,-1026.69)">
            <rect x="708.661" y="708.661" width="236.22" height="236.22" style="fill:white;stroke:black;stroke-width:12.5px;"/>
        </g>
        <g transform="matrix(0.617647,0,0,1.81098,-787.865,-2302.33)">
            <ellipse cx="4370.08" cy="1533.3" rx="118.11" ry="120.245" style="fill:white;stroke:black;stroke-width:12.5px;"/>
        </g>
        <g transform="matrix(0.617647,0,0,1.81098,1708.37,-969.656)">
            <g transform="matrix(150,0,0,150,372.347,852.389)">
            </g>
            <text x="284.749px" y="852.389px" style="font-family:'ArialMT', 'Arial', sans-serif;font-size:150px;">+</text>
        </g>
        <g transform="matrix(0.617647,0,0,1.81098,1087.36,-987.529)">
            <g transform="matrix(150,0,0,150,451.595,852.389)">
            </g>
            <text x="284.749px" y="852.389px" style="font-family:'ArialMT', 'Arial', sans-serif;font-size:150px;">h0</text>
        </g>
        <g transform="matrix(0.617647,0,0,1.81098,802.455,-178.847)">
            <rect x="708.661" y="708.661" width="236.22" height="236.22" style="fill:white;stroke:black;stroke-width:12.5px;"/>
        </g>
        <g transform="matrix(0.617647,0,0,1.81098,1087.36,-129.275)">
            <g transform="matrix(150,0,0,150,451.595,852.389)">
            </g>
            <text x="284.749px" y="852.389px" style="font-family:'ArialMT', 'Arial', sans-serif;font-size:150px;">h3</text>
        </g>
        <g transform="matrix(0.617647,0,0,1.81098,802.455,686.263)">
            <rect x="708.661" y="708.661" width="236.22" height="236.22" style="fill:white;stroke:black;stroke-width:12.5px;"/>
        </g>
        <g transform="matrix(0.617647,0,0,1.81098,1087.58,734.036)">
            <g transform="matrix(150,0,0,150,451.595,852.389)">
            </g>
            <text x="284.749px" y="852.389px" style="font-family:'ArialMT', 'Arial', sans-serif;font-size:150px;">h2</text>
        </g>
        <g transform="matrix(0.617647,0,0,1.81098,802.455,1565.66)">
            <rect x="708.661" y="708.661" width="236.22" height="236.22" style="fill:white;stroke:black;stroke-width:12.5px;"/>
        </g>
        <g transform="matrix(0.617647,0,0,1.81098,1087.58,1621.99)">
            <g transform="matrix(150,0,0,150,451.595,852.389)">
            </g>
            <text x="284.749px" y="852.389px" style="font-family:'ArialMT', 'Arial', sans-serif;font-size:150px;">h1</text>
        </g>
        <g transform="matrix(0.617647,0,0,1.81098,77.2255,-108.616)">
            <text x="284.749px" y="852.389px" style="font-family:'ArialMT', 'Arial', sans-serif;font-size:150px;">Z</text>
            <g transform="matrix(100,0,0,100,465.291,777.389)">
            </g>
            <text x="376.375px" y="777.389px" style="font-family:'ArialMT', 'Arial', sans-serif;font-size:100px;">-1</text>
        </g>
        <g transform="matrix(0.617647,0,0,1.81098,-206.54,684.463)">
            <rect x="708.661" y="708.661" width="236.22" height="236.22" style="fill:white;stroke:black;stroke-width:12.5px;"/>
        </g>
        <g transform="matrix(0.617647,0,0,1.81098,74.9468,746.963)">
            <text x="284.749px" y="852.389px" style="font-family:'ArialMT', 'Arial', sans-serif;font-size:150px;">Z</text>
            <g transform="matrix(100,0,0,100,465.291,777.389)">
            </g>
            <text x="376.375px" y="777.389px" style="font-family:'ArialMT', 'Arial', sans-serif;font-size:100px;">-1</text>
        </g>
        <g transform="matrix(0.617647,0,0,1.81098,-206.54,1540.04)">
            <rect x="708.661" y="708.661" width="236.22" height="236.22" style="fill:white;stroke:black;stroke-width:12.5px;"/>
        </g>
        <g transform="matrix(0.617647,0,0,1.81098,74.9468,1602.54)">
            <text x="284.749px" y="852.389px" style="font-family:'ArialMT', 'Arial', sans-serif;font-size:150px;">Z</text>
            <g transform="matrix(100,0,0,100,465.291,777.389)">
            </g>
            <text x="376.375px" y="777.389px" style="font-family:'ArialMT', 'Arial', sans-serif;font-size:100px;">-1</text>
        </g>
        <g transform="matrix(0.463235,0,0,1.81098,415.818,-983.916)">
            <path d="M755.906,755.906L755.906,850.394L708.661,803.15L755.906,850.394L803.15,803.15" style="fill:none;stroke:black;stroke-width:14.14px;"/>
        </g>
        <g transform="matrix(0.617647,0,0,1.81098,631.649,-975.862)">
            <g transform="matrix(150,0,0,150,368.172,852.389)">
            </g>
            <text x="284.749px" y="852.389px" style="font-family:'ArialMT', 'Arial', sans-serif;font-size:150px;">4</text>
        </g>
        <g transform="matrix(0.617647,0,0,1.81098,291.802,684.463)">
            <rect x="708.661" y="708.661" width="236.22" height="236.22" style="fill:white;stroke:black;stroke-width:12.5px;"/>
        </g>
        <g transform="matrix(0.463235,0,0,1.81098,415.818,727.242)">
            <path d="M755.906,755.906L755.906,850.394L708.661,803.15L755.906,850.394L803.15,803.15" style="fill:none;stroke:black;stroke-width:14.14px;"/>
        </g>
        <g transform="matrix(0.617647,0,0,1.81098,631.649,735.296)">
            <g transform="matrix(150,0,0,150,368.172,852.389)">
            </g>
            <text x="284.749px" y="852.389px" style="font-family:'ArialMT', 'Arial', sans-serif;font-size:150px;">4</text>
        </g>
        <g transform="matrix(0.617647,0,0,1.81098,291.802,1540.04)">
            <rect x="708.661" y="708.661" width="236.22" height="236.22" style="fill:white;stroke:black;stroke-width:12.5px;"/>
        </g>
        <g transform="matrix(0.463235,0,0,1.81098,415.818,1582.82)">
            <path d="M755.906,755.906L755.906,850.394L708.661,803.15L755.906,850.394L803.15,803.15" style="fill:none;stroke:black;stroke-width:14.14px;"/>
        </g>
        <g transform="matrix(0.617647,0,0,1.81098,631.649,1590.87)">
            <g transform="matrix(150,0,0,150,368.172,852.389)">
            </g>
            <text x="284.749px" y="852.389px" style="font-family:'ArialMT', 'Arial', sans-serif;font-size:150px;">4</text>
        </g>
    </g>
</svg>
